<svg viewBox="0 0 29 26" fill="none" xmlns="http://www.w3.org/2000/svg">
<path d="M25.274 3.558C24.6313 2.91514 23.8683 2.40519 23.0285 2.05727C22.1887 1.70935 21.2886 1.53027 20.3795 1.53027C19.4705 1.53027 18.5704 1.70935 17.7306 2.05727C16.8908 2.40519 16.1277 2.91514 15.485 3.558L14.151 4.892L12.817 3.558C12.1757 2.90872 11.4123 2.39267 10.5708 2.03954C9.72932 1.6864 8.82629 1.50315 7.91369 1.50034C7.00109 1.49752 6.09694 1.6752 5.25327 2.02313C4.4096 2.37107 3.64305 2.8824 2.99774 3.52771C2.35244 4.17302 1.8411 4.93956 1.49316 5.78324C1.14523 6.62691 0.967555 7.53106 0.97037 8.44366C0.973185 9.35626 1.15643 10.2593 1.50957 11.1008C1.8627 11.9423 2.37876 12.7057 3.02803 13.347L4.36203 14.681L14.151 24.47L23.94 14.681L25.274 13.347C25.9169 12.7043 26.4268 11.9413 26.7748 11.1015C27.1227 10.2616 27.3018 9.36153 27.3018 8.4525C27.3018 7.54348 27.1227 6.64335 26.7748 5.80355C26.4268 4.96374 25.9169 4.2007 25.274 3.558V3.558Z" stroke="#787172" stroke-opacity="0.7" stroke-width="2" stroke-linecap="round" stroke-linejoin="round"/>
</svg>
