<svg width="34" height="34" viewBox="0 0 34 34" fill="none" xmlns="http://www.w3.org/2000/svg">
<path d="M21.6585 17.0005C21.6585 17.9218 21.3853 18.8223 20.8735 19.5883C20.3617 20.3543 19.6342 20.9514 18.783 21.3039C17.9319 21.6565 16.9953 21.7487 16.0918 21.569C15.1882 21.3893 14.3582 20.9456 13.7068 20.2942C13.0554 19.6428 12.6117 18.8128 12.432 17.9092C12.2523 17.0057 12.3445 16.0691 12.6971 15.218C13.0496 14.3668 13.6467 13.6393 14.4127 13.1275C15.1787 12.6157 16.0792 12.3425 17.0005 12.3425C18.2359 12.3425 19.4207 12.8333 20.2942 13.7068C21.1677 14.5803 21.6585 15.7651 21.6585 17.0005V17.0005Z" stroke="white" stroke-width="4" stroke-linecap="round" stroke-linejoin="round"/>
<path d="M27.0915 21.0915C26.9099 21.5028 26.8558 21.9591 26.936 22.4015C27.0162 22.8439 27.2271 23.2521 27.5415 23.5735L27.6235 23.6555C27.8828 23.9076 28.0895 24.2086 28.2314 24.5413C28.3733 24.8739 28.4478 25.2314 28.4503 25.593C28.4529 25.9546 28.3836 26.3132 28.2463 26.6478C28.1091 26.9824 27.9068 27.2864 27.6511 27.5421C27.3954 27.7978 27.0914 28.0001 26.7568 28.1373C26.4222 28.2746 26.0637 28.3439 25.702 28.3413C25.3404 28.3388 24.9829 28.2643 24.6503 28.1224C24.3176 27.9805 24.0166 27.7738 23.7645 27.5145L23.6825 27.4325C23.3637 27.124 22.9614 26.9158 22.5255 26.8337C22.0896 26.7515 21.6391 26.799 21.2299 26.9702C20.8207 27.1415 20.4706 27.4289 20.2232 27.7971C19.9757 28.1653 19.8416 28.5979 19.8375 29.0415V29.2735C19.8375 29.9969 19.5501 30.6906 19.0386 31.2021C18.5271 31.7136 17.8334 32.001 17.11 32.001C16.3866 32.001 15.6929 31.7136 15.1814 31.2021C14.6699 30.6906 14.3825 29.9969 14.3825 29.2735V29.1505C14.3719 28.6991 14.2258 28.2614 13.9631 27.8942C13.7004 27.527 13.3333 27.2473 12.9095 27.0915C12.4982 26.9099 12.0419 26.8558 11.5995 26.936C11.1571 27.0162 10.7489 27.2271 10.4275 27.5415L10.3455 27.6235C10.0934 27.8828 9.79235 28.0895 9.45973 28.2314C9.12712 28.3733 8.76961 28.4478 8.40798 28.4503C8.04635 28.4529 7.68782 28.3836 7.35322 28.2463C7.01862 28.1091 6.71463 27.9068 6.45891 27.6511C6.2032 27.3954 6.00086 27.0914 5.86365 26.7568C5.72645 26.4222 5.65711 26.0637 5.65968 25.702C5.66224 25.3404 5.73666 24.9829 5.8786 24.6503C6.02054 24.3176 6.22718 24.0166 6.4865 23.7645L6.5685 23.6825C6.87697 23.3637 7.08518 22.9614 7.16735 22.5255C7.24952 22.0896 7.20204 21.6391 7.03079 21.2299C6.85955 20.8207 6.57205 20.4706 6.2039 20.2232C5.83574 19.9757 5.40309 19.8416 4.9595 19.8375H4.7275C4.00412 19.8375 3.31037 19.5501 2.79887 19.0386C2.28736 18.5271 2 17.8334 2 17.11C2 16.3866 2.28736 15.6929 2.79887 15.1814C3.31037 14.6699 4.00412 14.3825 4.7275 14.3825H4.8505C5.30187 14.3719 5.73962 14.2258 6.10682 13.9631C6.47403 13.7004 6.75371 13.3333 6.9095 12.9095C7.09106 12.4982 7.14523 12.0419 7.06502 11.5995C6.98481 11.1571 6.77391 10.7489 6.4595 10.4275L6.3775 10.3455C6.11818 10.0934 5.91154 9.79235 5.7696 9.45973C5.62766 9.12712 5.55324 8.76961 5.55068 8.40798C5.54811 8.04635 5.61745 7.68782 5.75465 7.35322C5.89186 7.01862 6.0942 6.71463 6.34991 6.45891C6.60563 6.2032 6.90962 6.00086 7.24422 5.86365C7.57882 5.72645 7.93735 5.65711 8.29898 5.65968C8.66061 5.66224 9.01812 5.73666 9.35073 5.8786C9.68335 6.02054 9.98444 6.22718 10.2365 6.4865L10.3185 6.5685C10.6399 6.88291 11.0481 7.09381 11.4905 7.17402C11.9329 7.25423 12.3892 7.20006 12.8005 7.0185H12.9095C13.3129 6.8457 13.6569 6.55872 13.8993 6.19288C14.1416 5.82705 14.2717 5.39833 14.2735 4.9595V4.7275C14.2735 4.00412 14.5609 3.31037 15.0724 2.79887C15.5839 2.28736 16.2776 2 17.001 2C17.7244 2 18.4181 2.28736 18.9296 2.79887C19.4411 3.31037 19.7285 4.00412 19.7285 4.7275V4.8505C19.7326 5.29409 19.8667 5.72674 20.1142 6.0949C20.3616 6.46305 20.7117 6.75055 21.1209 6.92179C21.5301 7.09304 21.9806 7.14052 22.4165 7.05835C22.8524 6.97618 23.2547 6.76797 23.5735 6.4595L23.6555 6.3775C23.9076 6.11818 24.2086 5.91154 24.5413 5.7696C24.8739 5.62766 25.2314 5.55324 25.593 5.55068C25.9546 5.54811 26.3132 5.61745 26.6478 5.75465C26.9824 5.89186 27.2864 6.0942 27.5421 6.34991C27.7978 6.60563 28.0001 6.90962 28.1373 7.24422C28.2746 7.57882 28.3439 7.93735 28.3413 8.29898C28.3388 8.66061 28.2643 9.01812 28.1224 9.35073C27.9805 9.68335 27.7738 9.98444 27.5145 10.2365L27.4325 10.3185C27.1181 10.6399 26.9072 11.0481 26.827 11.4905C26.7468 11.9329 26.8009 12.3892 26.9825 12.8005V12.9095C27.1553 13.3129 27.4423 13.6569 27.8081 13.8993C28.174 14.1416 28.6027 14.2717 29.0415 14.2735H29.2735C29.9969 14.2735 30.6906 14.5609 31.2021 15.0724C31.7136 15.5839 32.001 16.2776 32.001 17.001C32.001 17.7244 31.7136 18.4181 31.2021 18.9296C30.6906 19.4411 29.9969 19.7285 29.2735 19.7285H29.1505C28.7117 19.7303 28.283 19.8604 27.9171 20.1027C27.5513 20.3451 27.2643 20.6891 27.0915 21.0925V21.0915Z" stroke="white" stroke-width="4" stroke-linecap="round" stroke-linejoin="round"/>
</svg>
